<?xml version="1.0" encoding="UTF-8"?>
<svg version="1.1" xmlns="http://www.w3.org/2000/svg" width="512" height="512">
    <path
        d="M0 0 C1.01790619 0.00215515 2.03581238 0.0043103 3.08456421 0.00653076 C17.69363523 0.05620146 32.02575853 0.30709809 46.375 3.3125 C47.34985352 3.51117676 48.32470703 3.70985352 49.32910156 3.91455078 C86.24061921 11.63577862 120.90178362 25.97314294 151.375 48.3125 C152.2424585 48.94454346 152.2424585 48.94454346 153.12744141 49.58935547 C160.37723416 54.90780842 167.10620794 60.63229802 173.65625 66.78125 C175.95412963 68.92065518 178.29158807 70.9726899 180.6875 73 C183.94952617 75.83245894 186.76563412 78.88522849 189.55078125 82.18359375 C190.78419972 83.62302216 192.05413567 85.03182121 193.35546875 86.41015625 C205.65985595 99.47656379 215.47661398 114.78779807 224.375 130.3125 C224.80409668 131.06080078 225.23319336 131.80910156 225.67529297 132.58007812 C238.71070917 155.62033667 247.38567422 180.84839856 252.6875 206.75 C252.83485596 207.46889404 252.98221191 208.18778809 253.1340332 208.9284668 C256.10789088 224.57475609 256.74800362 240.04818046 256.6875 255.9375 C256.68534485 256.95540619 256.6831897 257.97331238 256.68096924 259.02206421 C256.63129854 273.63113523 256.38040191 287.96325853 253.375 302.3125 C253.07698486 303.77478027 253.07698486 303.77478027 252.77294922 305.26660156 C245.05172138 342.17811921 230.71435706 376.83928362 208.375 407.3125 C207.9536377 407.89080566 207.53227539 408.46911133 207.09814453 409.06494141 C201.77969158 416.31473416 196.05520198 423.04370794 189.90625 429.59375 C187.76684482 431.89162963 185.7148101 434.22908807 183.6875 436.625 C180.85504106 439.88702617 177.80227151 442.70313412 174.50390625 445.48828125 C173.06447784 446.72169972 171.65567879 447.99163567 170.27734375 449.29296875 C157.21093621 461.59735595 141.89970193 471.41411398 126.375 480.3125 C125.62669922 480.74159668 124.87839844 481.17069336 124.10742188 481.61279297 C101.06716333 494.64820917 75.83910144 503.32317422 49.9375 508.625 C49.21860596 508.77235596 48.49971191 508.91971191 47.7590332 509.0715332 C32.11274391 512.04539088 16.63931954 512.68550362 0.75 512.625 C-0.77685928 512.62176727 -0.77685928 512.62176727 -2.33456421 512.61846924 C-16.94363523 512.56879854 -31.27575853 512.31790191 -45.625 509.3125 C-47.08728027 509.01448486 -47.08728027 509.01448486 -48.57910156 508.71044922 C-85.49061921 500.98922138 -120.15178362 486.65185706 -150.625 464.3125 C-151.20330566 463.8911377 -151.78161133 463.46977539 -152.37744141 463.03564453 C-159.62723416 457.71719158 -166.35620794 451.99270198 -172.90625 445.84375 C-175.20412963 443.70434482 -177.54158807 441.6523101 -179.9375 439.625 C-183.19952617 436.79254106 -186.01563412 433.73977151 -188.80078125 430.44140625 C-190.03419972 429.00197784 -191.30413567 427.59317879 -192.60546875 426.21484375 C-204.90985595 413.14843621 -214.72661398 397.83720193 -223.625 382.3125 C-224.26864502 381.19004883 -224.26864502 381.19004883 -224.92529297 380.04492188 C-237.96070917 357.00466333 -246.63567422 331.77660144 -251.9375 305.875 C-252.08485596 305.15610596 -252.23221191 304.43721191 -252.3840332 303.6965332 C-255.35789088 288.05024391 -255.99800362 272.57681954 -255.9375 256.6875 C-255.93534485 255.66959381 -255.9331897 254.65168762 -255.93096924 253.60293579 C-255.88129854 238.99386477 -255.63040191 224.66174147 -252.625 210.3125 C-252.42632324 209.33764648 -252.22764648 208.36279297 -252.02294922 207.35839844 C-244.30172138 170.44688079 -229.96435706 135.78571638 -207.625 105.3125 C-206.99295654 104.4450415 -206.99295654 104.4450415 -206.34814453 103.56005859 C-201.02969158 96.31026584 -195.30520198 89.58129206 -189.15625 83.03125 C-187.01684482 80.73337037 -184.9648101 78.39591193 -182.9375 76 C-180.10504106 72.73797383 -177.05227151 69.92186588 -173.75390625 67.13671875 C-172.31447784 65.90330028 -170.90567879 64.63336433 -169.52734375 63.33203125 C-156.46093621 51.02764405 -141.14970193 41.21088602 -125.625 32.3125 C-124.87669922 31.88340332 -124.12839844 31.45430664 -123.35742188 31.01220703 C-100.31716333 17.97679083 -75.08910144 9.30182578 -49.1875 4 C-48.46860596 3.85264404 -47.74971191 3.70528809 -47.0090332 3.5534668 C-31.36274391 0.57960912 -15.88931954 -0.06050362 0 0 Z "
        fill="#3DD3C4" transform="translate(255.625,-0.3125)" />
    <path
        d="M0 0 C8.11714794 6.8657543 13.06542875 13.14312882 14 23.9140625 C14.77593198 41.35528905 9.21203895 56.375747 -2.375 69.4375 C-11.51405471 79.25652968 -23.18626022 86.69574476 -35.3125 92.3125 C-35.9725 92.3125 -36.6325 92.3125 -37.3125 92.3125 C-37.427146 93.36244141 -37.54179199 94.41238281 -37.65991211 95.49414062 C-39.09261701 108.54057315 -40.64284942 121.57176052 -42.21069336 134.60253906 C-42.53841423 137.32867876 -42.86495317 140.05495824 -43.19140625 142.78125 C-43.28933975 143.5918689 -43.38727325 144.40248779 -43.48817444 145.2376709 C-43.67505201 146.79946577 -43.85663839 148.3619042 -44.032547 149.92497253 C-44.23166571 151.6231197 -44.45557509 153.31843935 -44.69633484 155.01118469 C-44.81169083 155.89799423 -44.92704681 156.78480377 -45.04589844 157.69848633 C-45.15891296 158.50167801 -45.27192749 159.30486969 -45.3883667 160.13240051 C-45.29416065 162.83949811 -44.55764805 163.75096233 -42.69921875 165.66796875 C-41.49332401 166.64645859 -40.2581596 167.58969296 -39 168.5 C-38.04009155 169.25289307 -38.04009155 169.25289307 -37.06079102 170.02099609 C-35.16946177 171.48853319 -33.24849002 172.90464723 -31.3125 174.3125 C-30.32765625 175.05371094 -29.3428125 175.79492188 -28.328125 176.55859375 C-21.38831043 181.61624649 -15.98729392 184.21189335 -7.3125 183.3125 C-1.972309 182.2444618 1.89218211 180.09021246 5.15551758 175.68847656 C11.8249735 165.34470843 13.8265524 154.75118946 15.04785156 142.72888184 C15.31866639 140.06432873 15.61718593 137.40404345 15.921875 134.74316406 C16.83540525 126.67814347 17.66409853 118.60509728 18.46176147 110.52787781 C18.78334151 107.30075418 19.11945078 104.07521712 19.45672607 100.84970093 C19.68305008 98.60660319 19.88262791 96.36220903 20.08056641 94.11645508 C20.21924334 92.74939618 20.35899285 91.38244551 20.5 90.015625 C20.60957031 88.83645508 20.71914062 87.65728516 20.83203125 86.44238281 C22.08580773 81.85522115 24.8407302 79.48177697 28.78515625 76.984375 C29.43355469 76.68015625 30.08195313 76.3759375 30.75 76.0625 C31.72646484 75.59070313 31.72646484 75.59070313 32.72265625 75.109375 C36.20690637 73.69627952 39.34053178 73.18533508 43.09375 73.1796875 C44.33318359 73.17775391 44.33318359 73.17775391 45.59765625 73.17578125 C46.45230469 73.17964844 47.30695313 73.18351562 48.1875 73.1875 C49.04214844 73.18363281 49.89679688 73.17976563 50.77734375 73.17578125 C51.60363281 73.17707031 52.42992187 73.17835938 53.28125 73.1796875 C54.03083984 73.18081543 54.78042969 73.18194336 55.55273438 73.18310547 C57.71096905 73.31392253 59.61225391 73.72083159 61.6875 74.3125 C60.95504399 86.60015809 59.38081878 98.78854646 57.875 111 C57.74188416 112.0904361 57.60876831 113.18087219 57.47161865 114.30435181 C55.95196072 126.73996396 54.34735356 139.13698217 52.3125 151.5 C49.47120067 165.55323149 49.47120067 165.55323149 52.08984375 179.10546875 C53.8374498 181.51964337 54.66774228 182.14536129 57.5703125 182.62109375 C63.34042033 182.95282469 66.39735698 181.7365783 70.86328125 178.11328125 C75.43699104 173.59833432 77.19402969 170.60166842 77.8125 164.109375 C77.92071327 163.0570166 77.92071327 163.0570166 78.03111267 161.98339844 C78.18477105 160.46994466 78.33062796 158.95568241 78.4694519 157.4407959 C78.69160824 155.01769053 78.9339136 152.5973501 79.18188477 150.17675781 C79.43829416 147.67163293 79.69349766 145.16645453 79.94252014 142.6605835 C80.7260124 134.78011742 81.65563927 126.92197224 82.625 119.0625 C82.79068561 117.70509743 82.95621118 116.34767532 83.12158203 114.99023438 C84.00837867 107.7306063 84.91808559 100.47401532 85.83984375 93.21875 C86.24800898 90.00007741 86.65546756 86.78131603 87.0625 83.5625 C87.16469849 82.75537567 87.26689697 81.94825134 87.37219238 81.1166687 C89.63570122 63.1874939 91.64964949 45.23070141 93.63232422 27.26855469 C94.19918436 22.14353407 94.78677572 17.0213046 95.39007568 11.90045166 C95.65614551 9.58532201 95.89698528 7.26918002 96.13134766 4.95068359 C96.26976074 3.7745752 96.40817383 2.5984668 96.55078125 1.38671875 C96.7041394 -0.05247925 96.7041394 -0.05247925 96.8605957 -1.52075195 C97.6875 -3.6875 97.6875 -3.6875 99.99951172 -4.98803711 C102.40097828 -5.6129419 104.36427202 -5.94490207 106.83203125 -5.953125 C107.97188477 -5.95699219 107.97188477 -5.95699219 109.13476562 -5.9609375 C109.91529297 -5.95320312 110.69582031 -5.94546875 111.5 -5.9375 C112.65338867 -5.94910156 112.65338867 -5.94910156 113.83007812 -5.9609375 C122.22514027 -5.93259974 128.56038912 -4.66516915 134.6875 1.3125 C137.22216907 6.38183814 135.51826747 13.66748616 134.734375 19.09765625 C134.58403809 20.18779526 134.58403809 20.18779526 134.43066406 21.29995728 C134.10446253 23.65900851 133.77101565 26.01697278 133.4375 28.375 C132.97693643 31.68458797 132.51982737 34.99465102 132.0625 38.3046875 C131.9467865 39.13826279 131.831073 39.97183807 131.71185303 40.83067322 C130.94057391 46.4064432 130.20546362 51.98584876 129.5 57.5703125 C129.4087384 58.29107468 129.31747681 59.01183685 129.22344971 59.75444031 C128.87523321 62.51075973 128.52804058 65.26718027 128.18737793 68.02444458 C127.95606747 69.89557893 127.72033899 71.76616555 127.484375 73.63671875 C127.35385742 74.68947998 127.22333984 75.74224121 127.08886719 76.8269043 C126.6875 79.3125 126.6875 79.3125 125.6875 81.3125 C127.04681641 80.58933594 127.04681641 80.58933594 128.43359375 79.8515625 C141.72092911 72.89858908 155.63002727 69.36602157 170.6484375 73.1875 C178.08046307 75.63797264 184.03774082 78.90653905 189.6875 84.3125 C190.44675781 85.03179687 191.20601563 85.75109375 191.98828125 86.4921875 C202.47476885 97.24304033 208.58798541 111.34237775 209.0625 126.375 C208.4155509 148.91039379 202.05354811 171.22885727 186.265625 187.9296875 C178.55134441 195.0595529 169.57813609 200.74452518 159.6875 204.3125 C158.07488281 204.9003125 158.07488281 204.9003125 156.4296875 205.5 C147.49021613 208.23308679 138.82955382 208.72585921 129.5 208.8125 C128.33670166 208.83094971 127.17340332 208.84939941 125.97485352 208.8684082 C112.22489033 208.77028439 99.01087666 204.76992821 89.0625 194.9375 C88.27875 194.07125 87.495 193.205 86.6875 192.3125 C83.39901432 193.74800823 81.28822395 195.54863521 78.75 198.0625 C67.71874906 208.12256108 55.18254404 210.08207454 40.87548828 209.49169922 C30.45634535 208.63835723 22.74079938 202.5053152 15.6875 195.3125 C15.16542969 195.83199219 14.64335937 196.35148438 14.10546875 196.88671875 C4.71917997 205.77985751 -3.49288444 209.09059815 -16.33032227 208.90014648 C-23.24924752 208.57707582 -28.41778454 207.02462402 -34.3125 203.3125 C-34.86776367 202.97476563 -35.42302734 202.63703125 -35.99511719 202.2890625 C-43.03973319 198.00070478 -49.80692224 193.38685066 -56.3125 188.3125 C-56.498125 188.993125 -56.68375 189.67375 -56.875 190.375 C-61.22313964 199.26032883 -70.25649457 204.20675171 -79.30078125 207.3515625 C-90.56430669 210.47788474 -101.2077708 210.52223798 -111.7265625 205.05859375 C-118.60614671 200.83650779 -123.89990138 195.12888285 -126.3125 187.3125 C-127.53938008 176.55989914 -127.12336706 166.21721594 -120.8046875 157.1484375 C-115.10115127 150.06544135 -108.2151374 145.30109326 -99.3125 143.3125 C-96.325763 143.09785579 -93.36729096 143.12083371 -90.375 143.1875 C-89.59576172 143.19652344 -88.81652344 143.20554687 -88.01367188 143.21484375 C-86.11314553 143.23816309 -84.21277992 143.27402414 -82.3125 143.3125 C-82.13074219 141.65927734 -82.13074219 141.65927734 -81.9453125 139.97265625 C-80.78042173 129.41363633 -79.56765693 118.86115932 -78.3125 108.3125 C-78.94639648 108.50884033 -79.58029297 108.70518066 -80.23339844 108.9074707 C-110.66777476 118.3125 -110.66777476 118.3125 -116.3125 118.3125 C-116.3125 111.3825 -116.3125 104.4525 -116.3125 97.3125 C-112.78845967 95.90288387 -109.95254576 94.90681201 -106.328125 94.12890625 C-105.39226562 93.92330078 -104.45640625 93.71769531 -103.4921875 93.50585938 C-101.5547989 93.08867503 -99.61730058 92.67199985 -97.6796875 92.25585938 C-93.16127522 91.26242763 -88.78775514 90.19233834 -84.421875 88.65234375 C-81.26928397 87.54482049 -78.69386665 86.98527097 -75.3125 87.3125 C-75.27511719 86.47074219 -75.23773438 85.62898438 -75.19921875 84.76171875 C-71.81349238 20.83123842 -71.81349238 20.83123842 -54.375 4.125 C-40.3813256 -7.22352863 -15.34352738 -10.82898951 0 0 Z "
        fill="#573F8C" transform="translate(215.3125,154.6875)" />
    <path
        d="M0 0 C6.62351359 3.91076478 9.7686351 11.00887831 12.02075195 18.07104492 C13.07397892 22.4137444 13.11207849 26.67473987 13.0625 31.125 C13.05492676 32.08519043 13.04735352 33.04538086 13.03955078 34.03466797 C12.67533997 49.98816467 8.13948943 65.8598206 -3.11328125 77.6484375 C-9.18611631 82.78779705 -16.06188396 85.39428319 -24.0234375 84.9140625 C-29.49724476 84.09571922 -33.64208306 82.78914436 -37.3125 78.5 C-43.98837773 68.99193172 -39.92158762 53.09219176 -38.56835938 42.07568359 C-38.24989371 39.43661916 -37.9645831 36.79521548 -37.6796875 34.15234375 C-36.19497832 21.37675803 -33.83815701 10.44632233 -23.40234375 1.8671875 C-16.53716502 -2.55086586 -7.56225408 -3.19100895 0 0 Z "
        fill="#3DD2C4" transform="translate(371.375,254.4375)" />
    <path
        d="M0 0 C5.55829245 3.05144204 8.97950021 6.85472763 12.1875 12.25 C13.63202759 18.46146865 13.57241519 25.05562088 11.0625 30.98046875 C8.28411239 35.33038185 3.84610946 39.80782953 -1.0546875 41.6328125 C-8.39986943 42.6821242 -15.84174058 43.43612871 -22.3125 39.3125 C-26.92969311 35.67367123 -30.05342722 31.8178774 -31.1875 25.9375 C-31.74781385 18.20085875 -31.83142312 12.28760977 -26.67578125 6.1328125 C-19.12304788 -2.04790095 -10.25030262 -4.66342597 0 0 Z "
        fill="#573F8C" transform="translate(274.1875,151.0625)" />
    <path
        d="M0 0 C2.75329021 1.79562405 4.52627461 3.05254922 6 6 C7.02220644 16.43991166 5.06032227 25.20208557 -1.1875 33.6875 C-6.24324504 39.74352147 -12.03319923 45.22728065 -19 49 C-19.66 49 -20.32 49 -21 49 C-19.40016717 12.09351165 -19.40016717 12.09351165 -9 1 C-5.89951072 -0.55024464 -3.42105782 -0.28992015 0 0 Z "
        fill="#3DD0C3" transform="translate(202,174)" />
    <path
        d="M0 0 C-0.98779588 5.84879139 -2.1918577 10.26867168 -6 15 C-9.75047482 17.50031654 -11.55856266 17.53603554 -16 17 C-19.65829624 14.43140902 -20.82227491 12.97748801 -21.625 8.5625 C-20.80149111 3.86849934 -19.38685438 2.30809033 -16 -1 C-10.31632113 -2.89455962 -5.50196983 -2.14711018 0 0 Z "
        fill="#3DCFC3" transform="translate(131,322)" />
</svg>